<?xml version="1.0" encoding="UTF-8"?>
<svg id="Layer_2" xmlns="http://www.w3.org/2000/svg" version="1.1" viewBox="0 0 1801 1541.6">
  <!-- Generator: Adobe Illustrator 30.0.0, SVG Export Plug-In . SVG Version: 2.1.1 Build 123)  -->
  <defs>
    <style>
      .st0 {
        fill: #c00404;
      }

      .st1 {
        fill: gray;
      }

      .st2 {
        fill: #5b5b5b;
      }

      .st3 {
        fill: #666;
      }

      .st4 {
        fill: #333;
      }

      .st5 {
        fill: #999;
      }
    </style>
  </defs>
  <g id="Layer_1-2">
    <g>
      <path class="st4" d="M1799.7,1347.2V136.7c0-145.9-39.7-136-176.9-136H161c-27,0-54.9-1.5-81.8,0C-19.7,18.4,2,117.3,2,193.7v1222.7c-.1,17.7-2,36.3,1.4,53.7,16.3,82.2,104.2,70.9,167.4,70.8h1440.2c36.7,0,73.6.6,110.3,0,95.7-21.7,78.4-119.6,78.4-193.8h0ZM87.9,65.4c49.6-1.2,99.4,0,149,0h1446c14.2,0,46.2-5,49.3,15.2,4.4,28.6,2.3,59.6,2.3,88.6v146.2H66.9v-151.4c0-26.6-12.2-93.2,21-98.5h0ZM1726.8,1467.3c-16.5,13.6-65.2,7.9-86.2,7.9l-1529.7.2c-21.4,0-42.2,2.2-43.6-24.2-2.2-40.4-.4-81.9-.4-122.4V381.4h1667.5v1030.3c0,19.1,4.4,39.4-7.6,55.6h0Z"/>
      <path class="st3" d="M1408.6,840.4c-15.2,10.5-53.1,51.6-66.6,66.9-6-27.9-10.2-55.1-18.6-82.5-56.7-185.8-235.9-336.3-436.1-324-87.5,1.3-167.6,28-239.4,76.8-20.1,13.7-61.9,37.6-61,66.1,1.9,54.1,52.4,22.7,73.8,4.7,137.1-115.1,344.8-109.1,479.6,7.6,81.9,70.9,117.4,158.6,135.5,261.6-23.4-20-64.3-70.8-89.1-81.9-30.5-.7-50.2,29-31.1,55.7,18.5,25.8,65.7,66,90.5,91,69.5,70.1,67,45.3,127.6-14.4,19.2-18.9,91.8-77.2,90.4-104.3-1.5-28.9-34.4-38.1-55.5-23.5h0Z"/>
      <path class="st5" d="M1177,1183.4c-22.9-.5-38,21.7-54.7,34.2-115.6,86.6-275.4,95.6-401.6,26-114.5-63.2-178.4-173.5-191.1-303.4,27.2,20.7,53.8,63.6,86.7,72,31.5-8.3,41.6-32.8,19.6-58.3-22-25.4-113-130.7-142.5-127.9-23.1,9-135.4,127.3-141.8,141.5-10.4,23.1,9.4,39.7,29.7,44.7,29-8.4,58.3-51.8,83.6-72-1.1,101.2,48.7,208.9,118.8,280.5,162.8,166.1,425.9,183.6,603.2,29.6,29.6-25.2,25.2-66.2-9.8-66.9h0Z"/>
      <path class="st1" d="M506.3,193.5c0,1,.2,1.9.3,2.9.1,1,.3,1.9.5,2.9.2.9.4,1.9.6,2.8s.5,1.9.8,2.8c.3.9.6,1.9.9,2.8.3.9.7,1.8,1,2.7.4.9.8,1.8,1.2,2.7.4.9.8,1.7,1.3,2.6s.9,1.7,1.4,2.5c.5.8,1,1.7,1.5,2.5s1.1,1.6,1.7,2.4,1.2,1.6,1.8,2.3c.6.8,1.2,1.5,1.9,2.2s1.3,1.4,2,2.1,1.4,1.4,2.1,2,1.4,1.3,2.2,1.9,1.5,1.2,2.3,1.8c.8.6,1.5,1.2,2.3,1.7.8.6,1.6,1.1,2.4,1.6s1.7,1,2.5,1.5c.8.5,1.7.9,2.6,1.3.9.4,1.8.8,2.6,1.2.9.4,1.8.8,2.7,1.1s1.8.7,2.7,1,1.8.6,2.8.8c.9.2,1.9.5,2.8.7s1.9.4,2.8.6c1,.2,1.9.3,2.9.4,1,.1,1.9.2,2.9.3,1,0,1.9.1,2.9.1,1,0,1.9,0,2.9,0,1,0,1.9,0,2.9-.2,1,0,1.9-.2,2.9-.3,1.3-.2,2.6-.4,3.9-.6,1.3-.2,2.6-.6,3.8-.9,1.3-.3,2.5-.7,3.8-1.1s2.5-.9,3.7-1.4c1.2-.5,2.4-1,3.6-1.6,1.2-.6,2.3-1.2,3.5-1.9,1.1-.7,2.3-1.4,3.3-2.1,1.1-.7,2.2-1.5,3.2-2.3,1-.8,2.1-1.6,3-2.5,1-.9,2-1.8,2.9-2.7.9-.9,1.8-1.9,2.7-2.9s1.7-2,2.5-3.1c.8-1,1.6-2.1,2.3-3.2s1.4-2.2,2.1-3.4c.7-1.1,1.3-2.3,1.8-3.5.6-1.2,1.1-2.4,1.6-3.6s1-2.4,1.4-3.7.8-2.5,1.1-3.8c.3-1.3.6-2.6.9-3.9.2-1.3.5-2.6.6-3.9.2-1.3.3-2.6.3-3.9,0-1.3.1-2.6,0-3.9,0-1.3,0-2.6-.2-3.9,0-1.3-.2-2.6-.4-3.9-.2-1.3-.4-2.6-.7-3.9s-.6-2.6-.9-3.8c-.3-1.3-.8-2.5-1.2-3.8-.4-1.2-.9-2.5-1.4-3.7-.5-1.2-1.1-2.4-1.7-3.6s-1.2-2.3-1.9-3.4c-.7-1.1-1.4-2.2-2.1-3.3s-1.5-2.1-2.3-3.2c-.8-1-1.7-2-2.5-3-.9-1-1.8-1.9-2.8-2.8s-1.9-1.8-2.9-2.6-2-1.7-3.1-2.4-2.2-1.5-3.2-2.2c-1.1-.7-2.2-1.4-3.4-2-1.2-.6-2.3-1.2-3.5-1.8s-2.4-1.1-3.6-1.6c-1.2-.5-2.5-.9-3.7-1.3-1.3-.4-2.5-.8-3.8-1.1-1.3-.3-2.6-.6-3.9-.8s-2.6-.4-3.9-.6-2.6-.2-3.9-.3c-1.3,0-2.6,0-4,0-1.3,0-2.6.1-4,.2-1.3.1-2.6.3-3.9.5-1,.1-1.9.3-2.9.5s-1.9.4-2.8.7c-.9.2-1.9.5-2.8.8-.9.3-1.8.6-2.8.9-.9.3-1.8.7-2.7,1.1s-1.8.8-2.6,1.2-1.7.9-2.6,1.3c-.8.5-1.7.9-2.5,1.4-.8.5-1.6,1-2.5,1.6-.8.5-1.6,1.1-2.4,1.7-.8.6-1.5,1.2-2.3,1.8-.7.6-1.5,1.2-2.2,1.9-.7.6-1.4,1.3-2.1,2-.7.7-1.3,1.4-2,2.1-.7.7-1.3,1.4-1.9,2.2s-1.2,1.5-1.8,2.3c-.6.8-1.1,1.6-1.7,2.4-.5.8-1,1.6-1.5,2.4-.5.8-1,1.7-1.4,2.5s-.9,1.7-1.3,2.6c-.4.9-.8,1.8-1.2,2.7-.4.9-.7,1.8-1,2.7-.3.9-.6,1.8-.9,2.8-.3.9-.5,1.9-.8,2.8-.2.9-.5,1.9-.6,2.8s-.4,1.9-.5,2.9-.3,1.9-.4,2.9c-.1,1-.2,1.9-.2,2.9s0,1.9,0,2.9,0,1.9,0,2.9c0,1,.1,1.9.2,2.9h0Z"/>
      <path class="st2" d="M330.7,194.7c.1,1,.2,1.9.4,2.9.2,1,.3,1.9.5,2.9.2.9.4,1.9.7,2.8s.5,1.9.8,2.8c.3.9.6,1.9,1,2.8.3.9.7,1.8,1.1,2.7.4.9.8,1.8,1.2,2.7s.9,1.7,1.4,2.6c.5.9,1,1.7,1.5,2.5s1,1.6,1.6,2.4c.5.8,1.1,1.6,1.7,2.4s1.2,1.5,1.8,2.3c.6.8,1.3,1.5,1.9,2.2.7.7,1.4,1.4,2,2.1.7.7,1.4,1.3,2.1,2,.7.6,1.5,1.3,2.2,1.9.8.6,1.5,1.2,2.3,1.8.8.6,1.6,1.1,2.4,1.6s1.6,1,2.5,1.5c.8.5,1.7,1,2.6,1.4.9.4,1.7.9,2.6,1.3.9.4,1.8.8,2.7,1.1.9.4,1.8.7,2.7,1,.9.3,1.9.6,2.8.9s1.9.5,2.8.7c1,.2,1.9.4,2.9.6,1,.2,1.9.3,2.9.4,1,.1,1.9.2,2.9.3s2,.1,2.9.2,2,0,2.9,0c1,0,2,0,2.9-.1,1,0,1.9-.1,2.9-.3s1.9-.2,2.9-.4,1.9-.3,2.9-.6c1-.2,1.9-.4,2.8-.7.9-.2,1.9-.5,2.8-.8s1.8-.6,2.8-1c.9-.3,1.8-.7,2.7-1.1.9-.4,1.8-.8,2.6-1.2.9-.4,1.7-.9,2.6-1.4.9-.5,1.7-1,2.5-1.5.8-.5,1.6-1.1,2.4-1.6s1.6-1.1,2.4-1.7c.8-.6,1.5-1.2,2.3-1.8s1.5-1.3,2.2-1.9c.7-.7,1.4-1.3,2.1-2s1.3-1.4,2-2.1,1.3-1.5,1.9-2.2c.6-.8,1.2-1.5,1.8-2.3.6-.8,1.1-1.6,1.6-2.4.5-.8,1-1.6,1.5-2.5.5-.8,1-1.7,1.4-2.6.5-.9.9-1.7,1.3-2.6.4-.9.8-1.8,1.1-2.7.4-.9.7-1.8,1-2.7.3-.9.6-1.9.9-2.8s.5-1.9.7-2.8.4-1.9.6-2.9c.2-.9.3-1.9.5-2.9.1-1,.2-1.9.3-2.9s.1-1.9.2-2.9c0-1,0-1.9,0-2.9,0-1,0-1.9-.1-2.9s-.1-1.9-.2-2.9c-.1-1-.2-1.9-.4-2.9s-.3-1.9-.5-2.9-.4-1.9-.7-2.8-.5-1.9-.8-2.8c-.3-.9-.6-1.8-1-2.8-.3-.9-.7-1.8-1.1-2.7-.4-.9-.8-1.8-1.2-2.6-.4-.9-.9-1.7-1.3-2.6-.5-.9-1-1.7-1.5-2.5-.5-.8-1-1.6-1.6-2.4s-1.1-1.6-1.7-2.4-1.2-1.5-1.8-2.3c-.6-.7-1.3-1.5-1.9-2.2-.7-.7-1.3-1.4-2-2.1-.7-.7-1.4-1.3-2.1-2s-1.5-1.3-2.2-1.9-1.5-1.2-2.3-1.8c-.8-.6-1.6-1.1-2.4-1.6s-1.6-1-2.5-1.5c-.8-.5-1.7-1-2.5-1.4s-1.7-.9-2.6-1.3c-.9-.4-1.8-.8-2.7-1.1-.9-.4-1.8-.7-2.7-1s-1.8-.6-2.8-.9c-.9-.3-1.9-.5-2.8-.7-.9-.2-1.9-.4-2.9-.6-1-.2-1.9-.3-2.9-.5-1-.1-1.9-.2-2.9-.3s-1.9-.1-2.9-.2-1.9,0-2.9,0c-1,0-1.9,0-2.9.1s-1.9.1-2.9.2c-1,.1-1.9.2-2.9.4-1,.1-1.9.3-2.9.5-1,.2-1.9.4-2.9.7-.9.2-1.9.5-2.8.8s-1.9.6-2.8.9-1.8.7-2.7,1.1c-.9.4-1.8.8-2.7,1.2-.9.4-1.7.9-2.6,1.3-.9.5-1.7,1-2.5,1.5s-1.6,1-2.5,1.6c-.8.6-1.6,1.1-2.4,1.7-.8.6-1.5,1.2-2.3,1.8s-1.5,1.3-2.2,1.9c-.7.7-1.4,1.3-2.1,2s-1.3,1.4-2,2.1-1.3,1.5-1.9,2.2-1.2,1.5-1.8,2.3c-.6.8-1.1,1.6-1.7,2.4-.5.8-1,1.6-1.5,2.5-.5.8-1,1.7-1.4,2.6s-.9,1.7-1.3,2.6c-.4.9-.8,1.8-1.1,2.7-.4.9-.7,1.8-1,2.7-.3.9-.6,1.9-.9,2.8-.3.9-.5,1.9-.7,2.8s-.4,1.9-.6,2.9-.3,1.9-.5,2.9-.2,1.9-.3,2.9c0,1-.1,1.9-.2,2.9,0,1,0,1.9,0,2.9,0,1,0,1.9.1,2.9s.1,1.9.3,2.9h0Z"/>
      <path class="st0" d="M156.5,193.5c0,.9.2,1.9.3,2.9s.3,1.9.5,2.8c.2.9.4,1.9.6,2.8.2.9.5,1.9.8,2.8.3.9.6,1.8.9,2.7s.6,1.8,1,2.7c.4.9.7,1.8,1.1,2.6.4.9.8,1.7,1.3,2.6.4.9.9,1.7,1.4,2.5.5.8,1,1.6,1.5,2.4.5.8,1.1,1.6,1.6,2.4s1.1,1.5,1.8,2.3,1.2,1.5,1.9,2.2c.6.7,1.3,1.4,2,2.1.7.7,1.4,1.4,2.1,2s1.4,1.3,2.2,1.9c.7.6,1.5,1.2,2.2,1.8.8.6,1.5,1.1,2.3,1.7.8.5,1.6,1.1,2.4,1.6s1.6,1,2.5,1.4c.8.5,1.7.9,2.6,1.3.9.4,1.7.8,2.6,1.2.9.4,1.8.7,2.7,1.1.9.3,1.8.6,2.7.9.9.3,1.8.6,2.8.8.9.2,1.9.5,2.8.7s1.9.4,2.8.5,1.9.3,2.8.4,1.9.2,2.9.2c1,0,1.9.1,2.9.1,1,0,1.9,0,2.9,0,1,0,1.9,0,2.9-.2.9,0,1.9-.2,2.9-.3,1-.1,1.9-.3,2.9-.4s1.9-.4,2.9-.6c.9-.2,1.9-.5,2.8-.7.9-.3,1.9-.6,2.8-.9.9-.3,1.8-.6,2.7-1s1.8-.7,2.7-1.1,1.8-.8,2.6-1.3c.9-.4,1.7-.9,2.6-1.4.8-.5,1.7-1,2.5-1.5.8-.5,1.6-1.1,2.4-1.6.8-.6,1.6-1.2,2.3-1.8.8-.6,1.5-1.2,2.2-1.9s1.4-1.3,2.1-2c.7-.7,1.4-1.4,2-2.1s1.3-1.4,1.9-2.2c.6-.7,1.2-1.5,1.8-2.3s1.1-1.6,1.7-2.4,1.1-1.6,1.6-2.4c.5-.8,1-1.7,1.5-2.5.5-.9.9-1.7,1.3-2.6.4-.9.8-1.8,1.2-2.6.4-.9.7-1.8,1.1-2.7.3-.9.6-1.8.9-2.8s.5-1.9.8-2.8c.2-.9.5-1.9.7-2.8.2-.9.4-1.9.5-2.9s.3-1.9.4-2.9.2-1.9.2-2.9c0-1,0-1.9,0-2.9s0-1.9,0-2.9c0-1-.1-1.9-.2-2.9,0-1-.2-1.9-.3-2.9-.1-1-.3-1.9-.5-2.9-.2-.9-.4-1.9-.6-2.8-.2-.9-.5-1.9-.8-2.8-.3-.9-.6-1.9-.9-2.8-.3-.9-.7-1.8-1-2.7-.4-.9-.8-1.8-1.2-2.7s-.8-1.8-1.3-2.6c-.5-.9-.9-1.7-1.4-2.5-.5-.8-1-1.6-1.5-2.5-.5-.8-1.1-1.6-1.7-2.4-.6-.8-1.2-1.6-1.8-2.3-.6-.8-1.2-1.5-1.9-2.2-.6-.7-1.3-1.4-2-2.1s-1.4-1.4-2.1-2-1.4-1.3-2.2-1.9c-.8-.6-1.5-1.2-2.3-1.8-.8-.6-1.6-1.1-2.4-1.7-.8-.5-1.6-1.1-2.5-1.6-.8-.5-1.7-1-2.5-1.4-.9-.5-1.7-.9-2.6-1.3-.9-.4-1.8-.8-2.7-1.2-.9-.4-1.8-.7-2.7-1-.9-.3-1.8-.6-2.8-.9-.9-.3-1.9-.5-2.8-.8-.9-.2-1.9-.4-2.8-.6-.9-.2-1.9-.4-2.9-.5s-1.9-.3-2.9-.4c-1,0-1.9-.2-2.9-.2s-1.9,0-2.9,0c-1,0-1.9,0-2.9,0s-1.9.1-2.9.2-1.9.2-2.9.4c-.9.1-1.9.3-2.8.5s-1.9.4-2.8.6c-.9.2-1.9.5-2.8.8-.9.3-1.8.6-2.7.9s-1.8.7-2.7,1-1.8.8-2.6,1.2-1.7.8-2.6,1.3-1.7.9-2.5,1.4c-.8.5-1.6,1-2.4,1.5-.8.5-1.6,1.1-2.4,1.7-.8.6-1.5,1.2-2.3,1.8-.7.6-1.5,1.2-2.2,1.9-.7.6-1.4,1.3-2.1,2-.7.7-1.3,1.4-2,2.1s-1.3,1.4-1.9,2.2-1.2,1.5-1.8,2.3c-.6.8-1.1,1.6-1.7,2.3-.5.8-1.1,1.6-1.5,2.4-.5.8-1,1.6-1.4,2.5-.4.8-.9,1.7-1.3,2.6-.4.9-.8,1.7-1.2,2.6-.4.9-.7,1.8-1,2.7-.3.9-.6,1.8-.9,2.7s-.5,1.8-.8,2.8-.4,1.9-.6,2.8-.4,1.9-.5,2.8c-.1.9-.3,1.9-.4,2.9-.1.9-.2,1.9-.2,2.9s0,1.9,0,2.9c0,1,0,1.9,0,2.9,0,1,.1,1.9.2,2.9h0Z"/>
    </g>
  </g>
</svg>